<mxfile host="app.diagrams.net" modified="2023-04-26T09:58:22.558Z" agent="5.0 (Windows NT 10.0; Win64; x64) AppleWebKit/537.36 (KHTML, like Gecko) Chrome/112.0.0.0 Safari/537.36 Edg/112.0.1722.48" etag="BLRV9SB86BvR34J_0AK6" version="20.4.2" type="github">
  <diagram id="sD159-CFhdxbTTTgBVk1" name="Page-1">
    <mxGraphModel dx="813" dy="594" grid="1" gridSize="10" guides="1" tooltips="1" connect="1" arrows="1" fold="1" page="1" pageScale="1" pageWidth="827" pageHeight="1169" math="0" shadow="0">
      <root>
        <mxCell id="0" />
        <mxCell id="1" parent="0" />
      </root>
    </mxGraphModel>
  </diagram>
</mxfile>
